<svg xmlns="http://www.w3.org/2000/svg" width="32" height="27.448" viewBox="0 4.552 32 27.448"><path fill="#FFF" d="M23 6.552c3.718 0 6.917 3.351 6.984 7.316l.003.124a3.65 3.65 0 0 0-.03.318c-.354 9.597-11.31 14.476-14.077 15.556-2.74-1.089-13.503-5.973-13.842-15.59a3.514 3.514 0 0 0-.024-.27l.002-.138C2.083 9.902 5.282 6.552 9 6.552c2.053 0 4.022 1.049 5.404 2.878L16 11.542l1.596-2.112C18.978 7.601 20.947 6.552 23 6.552m0-2c-2.844 0-5.35 1.488-7 3.672-1.65-2.184-4.156-3.672-7-3.672-4.918 0-8.9 4.374-8.984 9.282H0c0 .03.006.058.006.088 0 .022-.006.044-.006.068 0 .138.034.242.04.374C.48 26.872 15.874 32 15.874 32s15.62-5.122 16.082-17.616c.008-.14.044-.25.044-.394 0-.024-.006-.046-.006-.068 0-.032.006-.058.006-.088h-.016C31.9 8.926 27.918 4.552 23 4.552z"/></svg>